<svg height="400" version="1.1" width="900" xmlns="http://www.w3.org/2000/svg" style="overflow: hidden; position: relative; left: -0.400002px;"><desc style="-webkit-tap-highlight-color: rgba(0, 0, 0, 0);">Created with Raphaël 2.1.0</desc><defs style="-webkit-tap-highlight-color: rgba(0, 0, 0, 0);"></defs><rect x="0" y="140" width="220" height="220" r="0" rx="0" ry="0" fill="#cccccc" stroke="none" style="-webkit-tap-highlight-color: rgba(0, 0, 0, 0);"></rect><rect x="220" y="140" width="220" height="220" r="0" rx="0" ry="0" fill="#cccccc" stroke="none" id="water" style="-webkit-tap-highlight-color: rgba(0, 0, 0, 0);"></rect><rect x="440" y="200" width="220" height="160" r="0" rx="0" ry="0" fill="#cccccc" stroke="none" style="-webkit-tap-highlight-color: rgba(0, 0, 0, 0);"></rect><path fill="#32369b" stroke="none" d="M30,130L50,130L50,110L160,110L160,130L180,130L170,140L40,140" id="boat" style="-webkit-tap-highlight-color: rgba(0, 0, 0, 0);"></path><rect x="210" y="130" width="20" height="190" r="0" rx="0" ry="0" fill="#6faede" stroke="none" id="leftSluice" style="-webkit-tap-highlight-color: rgba(0, 0, 0, 0);"></rect><rect x="430" y="130" width="20" height="190" r="0" rx="0" ry="0" fill="#329a9b" stroke="none" id="rightSluice" style="-webkit-tap-highlight-color: rgba(0, 0, 0, 0);"></rect><rect x="210" y="320" width="20" height="40" r="0" rx="0" ry="0" fill="#6faede" stroke="none" style="-webkit-tap-highlight-color: rgba(0, 0, 0, 0);"></rect><rect x="430" y="320" width="20" height="40" r="0" rx="0" ry="0" fill="#329a9b" stroke="none" style="-webkit-tap-highlight-color: rgba(0, 0, 0, 0);"></rect><rect x="220" y="135" width="0" height="225" r="0" rx="0" ry="0" fill="#6faede" stroke="none" id="leftGate" style="-webkit-tap-highlight-color: rgba(0, 0, 0, 0);"></rect><rect x="440" y="135" width="0" height="225" r="0" rx="0" ry="0" fill="#329a9b" stroke="none" id="rightGate" style="-webkit-tap-highlight-color: rgba(0, 0, 0, 0);"></rect><rect x="730" y="300" width="60" height="60" r="0" rx="0" ry="0" fill="#6faede" stroke="none" style="-webkit-tap-highlight-color: rgba(0, 0, 0, 0);"></rect><path fill="none" stroke="#000000" d="M760,310L760,350" stroke-width="5px" stroke-linecap="round" style="-webkit-tap-highlight-color: rgba(0, 0, 0, 0); stroke-linecap: round;"></path><path fill="none" stroke="#000000" d="M740,330L760,350L780,330" stroke-width="5px" stroke-linecap="round" style="-webkit-tap-highlight-color: rgba(0, 0, 0, 0); stroke-linecap: round;"></path><rect x="730" y="300" width="60" height="60" r="0" rx="0" ry="0" fill="#ff0000" stroke="none" fill-opacity="0" id="left5" style="-webkit-tap-highlight-color: rgba(0, 0, 0, 0); cursor: pointer; fill-opacity: 0;"></rect><rect x="730" y="300" width="60" height="60" r="0" rx="0" ry="0" fill="#ffffff" stroke="none" fill-opacity="0.5" id="left5Cover" style="-webkit-tap-highlight-color: rgba(0, 0, 0, 0); fill-opacity: 0.5;"></rect><rect x="840" y="300" width="60" height="60" r="0" rx="0" ry="0" fill="#329a9b" stroke="none" style="-webkit-tap-highlight-color: rgba(0, 0, 0, 0);"></rect><path fill="none" stroke="#000000" d="M870,310L870,350" stroke-width="5px" stroke-linecap="round" style="-webkit-tap-highlight-color: rgba(0, 0, 0, 0); stroke-linecap: round;"></path><path fill="none" stroke="#000000" d="M850,330L870,350L890,330" stroke-width="5px" stroke-linecap="round" style="-webkit-tap-highlight-color: rgba(0, 0, 0, 0); stroke-linecap: round;"></path><rect x="840" y="300" width="60" height="60" r="0" rx="0" ry="0" fill="#ff0000" stroke="none" fill-opacity="0" id="right5" style="-webkit-tap-highlight-color: rgba(0, 0, 0, 0); cursor: pointer; fill-opacity: 0;"></rect><rect x="840" y="300" width="60" height="60" r="0" rx="0" ry="0" fill="#ffffff" stroke="none" fill-opacity="0.5" id="right5Cover" style="-webkit-tap-highlight-color: rgba(0, 0, 0, 0); fill-opacity: 0.5;"></rect><rect x="730" y="230" width="60" height="60" r="0" rx="0" ry="0" fill="#6faede" stroke="none" style="-webkit-tap-highlight-color: rgba(0, 0, 0, 0);"></rect><path fill="none" stroke="#000000" d="M760,240L760,280" stroke-width="5px" stroke-linecap="round" style="-webkit-tap-highlight-color: rgba(0, 0, 0, 0); stroke-linecap: round;"></path><path fill="none" stroke="#000000" d="M740,260L760,240L780,260" stroke-width="5px" stroke-linecap="round" style="-webkit-tap-highlight-color: rgba(0, 0, 0, 0); stroke-linecap: round;"></path><rect x="730" y="230" width="60" height="60" r="0" rx="0" ry="0" fill="#ff0000" stroke="none" fill-opacity="0" id="left4" style="-webkit-tap-highlight-color: rgba(0, 0, 0, 0); cursor: pointer; fill-opacity: 0;"></rect><rect x="730" y="230" width="60" height="60" r="0" rx="0" ry="0" fill="#ffffff" stroke="none" fill-opacity="0.5" id="left4Cover" style="-webkit-tap-highlight-color: rgba(0, 0, 0, 0); fill-opacity: 0.5;"></rect><rect x="840" y="230" width="60" height="60" r="0" rx="0" ry="0" fill="#329a9b" stroke="none" style="-webkit-tap-highlight-color: rgba(0, 0, 0, 0);"></rect><path fill="none" stroke="#000000" d="M870,240L870,280" stroke-width="5px" stroke-linecap="round" style="-webkit-tap-highlight-color: rgba(0, 0, 0, 0); stroke-linecap: round;"></path><path fill="none" stroke="#000000" d="M850,260L870,240L890,260" stroke-width="5px" stroke-linecap="round" style="-webkit-tap-highlight-color: rgba(0, 0, 0, 0); stroke-linecap: round;"></path><rect x="840" y="230" width="60" height="60" r="0" rx="0" ry="0" fill="#ff0000" stroke="none" fill-opacity="0" id="right4" style="-webkit-tap-highlight-color: rgba(0, 0, 0, 0); cursor: pointer; fill-opacity: 0;"></rect><rect x="840" y="230" width="60" height="60" r="0" rx="0" ry="0" fill="#ffffff" stroke="none" fill-opacity="0.5" id="right4Cover" style="-webkit-tap-highlight-color: rgba(0, 0, 0, 0); fill-opacity: 0.5; display: none;"></rect><rect x="730" y="160" width="60" height="60" r="0" rx="0" ry="0" fill="#6faede" stroke="none" style="-webkit-tap-highlight-color: rgba(0, 0, 0, 0);"></rect><path fill="none" stroke="#000000" d="M740,190L780,190" stroke-width="5px" stroke-linecap="round" style="-webkit-tap-highlight-color: rgba(0, 0, 0, 0); stroke-linecap: round;"></path><path fill="none" stroke="#000000" d="M760,170L740,190L760,210" stroke-width="5px" stroke-linecap="round" style="-webkit-tap-highlight-color: rgba(0, 0, 0, 0); stroke-linecap: round;"></path><rect x="730" y="160" width="60" height="60" r="0" rx="0" ry="0" fill="#ff0000" stroke="none" fill-opacity="0" id="left3" style="-webkit-tap-highlight-color: rgba(0, 0, 0, 0); cursor: pointer; fill-opacity: 0;"></rect><rect x="730" y="160" width="60" height="60" r="0" rx="0" ry="0" fill="#ffffff" stroke="none" fill-opacity="0.5" id="left3Cover" style="-webkit-tap-highlight-color: rgba(0, 0, 0, 0); fill-opacity: 0.5;"></rect><rect x="840" y="160" width="60" height="60" r="0" rx="0" ry="0" fill="#329a9b" stroke="none" style="-webkit-tap-highlight-color: rgba(0, 0, 0, 0);"></rect><path fill="none" stroke="#000000" d="M850,190L890,190" stroke-width="5px" stroke-linecap="round" style="-webkit-tap-highlight-color: rgba(0, 0, 0, 0); stroke-linecap: round;"></path><path fill="none" stroke="#000000" d="M870,170L850,190L870,210" stroke-width="5px" stroke-linecap="round" style="-webkit-tap-highlight-color: rgba(0, 0, 0, 0); stroke-linecap: round;"></path><rect x="840" y="160" width="60" height="60" r="0" rx="0" ry="0" fill="#ff0000" stroke="none" fill-opacity="0" id="right3" style="-webkit-tap-highlight-color: rgba(0, 0, 0, 0); cursor: pointer; fill-opacity: 0;"></rect><rect x="840" y="160" width="60" height="60" r="0" rx="0" ry="0" fill="#ffffff" stroke="none" fill-opacity="0.5" id="right3Cover" style="-webkit-tap-highlight-color: rgba(0, 0, 0, 0); fill-opacity: 0.5;"></rect><rect x="730" y="90" width="60" height="60" r="0" rx="0" ry="0" fill="#6faede" stroke="none" style="-webkit-tap-highlight-color: rgba(0, 0, 0, 0);"></rect><path fill="none" stroke="#000000" d="M740,120L780,120" stroke-width="5px" stroke-linecap="round" style="-webkit-tap-highlight-color: rgba(0, 0, 0, 0); stroke-linecap: round;"></path><path fill="none" stroke="#000000" d="M760,100L780,120L760,140" stroke-width="5px" stroke-linecap="round" style="-webkit-tap-highlight-color: rgba(0, 0, 0, 0); stroke-linecap: round;"></path><rect x="730" y="90" width="60" height="60" r="0" rx="0" ry="0" fill="#ff0000" stroke="none" fill-opacity="0" id="left2" style="-webkit-tap-highlight-color: rgba(0, 0, 0, 0); cursor: pointer; fill-opacity: 0;"></rect><rect x="730" y="90" width="60" height="60" r="0" rx="0" ry="0" fill="#ffffff" stroke="none" fill-opacity="0.5" id="left2Cover" style="-webkit-tap-highlight-color: rgba(0, 0, 0, 0); fill-opacity: 0.5; display: none;"></rect><rect x="840" y="90" width="60" height="60" r="0" rx="0" ry="0" fill="#329a9b" stroke="none" style="-webkit-tap-highlight-color: rgba(0, 0, 0, 0);"></rect><path fill="none" stroke="#000000" d="M850,120L890,120" stroke-width="5px" stroke-linecap="round" style="-webkit-tap-highlight-color: rgba(0, 0, 0, 0); stroke-linecap: round;"></path><path fill="none" stroke="#000000" d="M870,100L890,120L870,140" stroke-width="5px" stroke-linecap="round" style="-webkit-tap-highlight-color: rgba(0, 0, 0, 0); stroke-linecap: round;"></path><rect x="840" y="90" width="60" height="60" r="0" rx="0" ry="0" fill="#ff0000" stroke="none" fill-opacity="0" id="right2" style="-webkit-tap-highlight-color: rgba(0, 0, 0, 0); cursor: pointer; fill-opacity: 0;"></rect><rect x="840" y="90" width="60" height="60" r="0" rx="0" ry="0" fill="#ffffff" stroke="none" fill-opacity="0.5" id="right2Cover" style="-webkit-tap-highlight-color: rgba(0, 0, 0, 0); fill-opacity: 0.5;"></rect><rect x="730" y="20" width="60" height="60" r="0" rx="0" ry="0" fill="#32369b" stroke="none" style="-webkit-tap-highlight-color: rgba(0, 0, 0, 0);"></rect><path fill="none" stroke="#ffffff" d="M740,50L780,50" stroke-width="5px" stroke-linecap="round" style="-webkit-tap-highlight-color: rgba(0, 0, 0, 0); stroke-linecap: round;"></path><path fill="none" stroke="#ffffff" d="M760,30L740,50L760,70" stroke-width="5px" stroke-linecap="round" style="-webkit-tap-highlight-color: rgba(0, 0, 0, 0); stroke-linecap: round;"></path><rect x="730" y="20" width="60" height="60" r="0" rx="0" ry="0" fill="#ff0000" stroke="none" fill-opacity="0" id="left1" style="-webkit-tap-highlight-color: rgba(0, 0, 0, 0); cursor: pointer; fill-opacity: 0;"></rect><rect x="730" y="20" width="60" height="60" r="0" rx="0" ry="0" fill="#ffffff" stroke="none" fill-opacity="0.5" id="left1Cover" style="-webkit-tap-highlight-color: rgba(0, 0, 0, 0); fill-opacity: 0.5;"></rect><rect x="840" y="20" width="60" height="60" r="0" rx="0" ry="0" fill="#32369b" stroke="none" style="-webkit-tap-highlight-color: rgba(0, 0, 0, 0);"></rect><path fill="none" stroke="#ffffff" d="M850,50L890,50" stroke-width="5px" stroke-linecap="round" style="-webkit-tap-highlight-color: rgba(0, 0, 0, 0); stroke-linecap: round;"></path><path fill="none" stroke="#ffffff" d="M870,30L890,50L870,70" stroke-width="5px" stroke-linecap="round" style="-webkit-tap-highlight-color: rgba(0, 0, 0, 0); stroke-linecap: round;"></path><rect x="840" y="20" width="60" height="60" r="0" rx="0" ry="0" fill="#ff0000" stroke="none" fill-opacity="0" id="right1" style="-webkit-tap-highlight-color: rgba(0, 0, 0, 0); cursor: pointer; fill-opacity: 0;"></rect><rect x="840" y="20" width="60" height="60" r="0" rx="0" ry="0" fill="#ffffff" stroke="none" fill-opacity="0.5" id="right1Cover" style="-webkit-tap-highlight-color: rgba(0, 0, 0, 0); fill-opacity: 0.5;"></rect></svg>